<?xml version="1.0" encoding="utf-8"?>
<!-- Generator: Adobe Illustrator 27.8.1, SVG Export Plug-In . SVG Version: 6.00 Build 0)  -->
<svg version="1.1" id="Layer_1" xmlns="http://www.w3.org/2000/svg" xmlns:xlink="http://www.w3.org/1999/xlink" x="0px" y="0px"
	 viewBox="0 0 153 35.8" style="enable-background:new 0 0 153 35.8;" xml:space="preserve">
<style type="text/css">
	.st0{fill:#E41E2B;stroke:#F0D283;stroke-width:1.9218;stroke-miterlimit:10;}
</style>
<path class="st0" d="M135.1,1c-4.6,0-8.7,1.8-11.7,4.7c-3-2.9-7.2-4.7-11.7-4.7c-4.6,0-8.7,1.8-11.7,4.7C96.9,2.8,92.7,1,88.2,1
	s-8.7,1.8-11.7,4.7C73.4,2.8,69.3,1,64.8,1S56.1,2.8,53,5.7C50,2.8,45.9,1,41.3,1s-8.7,1.8-11.7,4.7C26.6,2.8,22.4,1,17.9,1
	C8.5,1,1,8.5,1,17.9c0,9.3,7.6,16.9,16.9,16.9c4.6,0,8.7-1.8,11.7-4.7c3,2.9,7.2,4.7,11.7,4.7S50,33,53,30.1c3,2.9,7.2,4.7,11.7,4.7
	s8.7-1.8,11.7-4.7c3,2.9,7.2,4.7,11.7,4.7s8.7-1.8,11.7-4.7c3,2.9,7.2,4.7,11.7,4.7c4.6,0,8.7-1.8,11.7-4.7c3,2.9,7.2,4.7,11.7,4.7
	c9.3,0,16.9-7.6,16.9-16.9C152,8.5,144.4,1,135.1,1z"/>
</svg>
