<?xml version="1.0" encoding="utf-8"?>
<!-- Generator: Adobe Illustrator 27.8.1, SVG Export Plug-In . SVG Version: 6.00 Build 0)  -->
<svg version="1.1" id="Layer_1" xmlns="http://www.w3.org/2000/svg" xmlns:xlink="http://www.w3.org/1999/xlink" x="0px" y="0px"
	 viewBox="0 0 88.3 19.8" style="enable-background:new 0 0 88.3 19.8;" xml:space="preserve">
<style type="text/css">
	.st0{fill:#F0D283;}
</style>
<path class="st0" d="M78.4,0c-2.7,0-5.1,1.1-6.8,2.8C69.7,1.1,67.3,0,64.7,0c-2.7,0-5.1,1.1-6.8,2.8C56,1.1,53.6,0,51,0
	c-2.7,0-5.1,1.1-6.8,2.8C42.4,1.1,39.9,0,37.3,0s-5.1,1.1-6.8,2.8C28.7,1.1,26.2,0,23.6,0s-5.1,1.1-6.8,2.8C15,1.1,12.6,0,9.9,0
	C4.4,0,0,4.4,0,9.9c0,5.5,4.4,9.9,9.9,9.9c2.7,0,5.1-1.1,6.8-2.8c1.8,1.7,4.2,2.8,6.8,2.8s5.1-1.1,6.8-2.8c1.8,1.7,4.2,2.8,6.8,2.8
	s5.1-1.1,6.8-2.8c1.8,1.7,4.2,2.8,6.8,2.8c2.7,0,5.1-1.1,6.8-2.8c1.8,1.7,4.2,2.8,6.8,2.8c2.7,0,5.1-1.1,6.8-2.8
	c1.8,1.7,4.2,2.8,6.8,2.8c5.5,0,9.9-4.4,9.9-9.9C88.3,4.4,83.8,0,78.4,0z"/>
</svg>
