<?xml version="1.0" encoding="utf-8"?>
<!-- Generator: Adobe Illustrator 27.8.1, SVG Export Plug-In . SVG Version: 6.00 Build 0)  -->
<svg version="1.1" id="Layer_1" xmlns="http://www.w3.org/2000/svg" xmlns:xlink="http://www.w3.org/1999/xlink" x="0px" y="0px"
	 viewBox="0 0 200 66" style="enable-background:new 0 0 200 66;" xml:space="preserve">
<style type="text/css">
	.st0{fill:#E41E2B;}
	.st1{fill:#F0D283;}
</style>
<g>
	<path class="st0" d="M167.1,1.9c-8.8,0-16.7,3.7-22.4,9.6c-5.6-5.9-13.6-9.6-22.4-9.6c-8.8,0-16.7,3.7-22.4,9.6
		c-5.6-5.9-13.6-9.6-22.4-9.6s-16.7,3.7-22.4,9.6c-5.6-5.9-13.6-9.6-22.4-9.6C15.8,1.9,1.9,15.8,1.9,33s13.9,31.1,31.1,31.1
		c8.8,0,16.7-3.7,22.4-9.6c5.6,5.9,13.6,9.6,22.4,9.6s16.7-3.7,22.4-9.6c5.6,5.9,13.6,9.6,22.4,9.6c8.8,0,16.7-3.7,22.4-9.6
		c5.6,5.9,13.6,9.6,22.4,9.6c17.1,0,31.1-13.9,31.1-31.1S184.2,1.9,167.1,1.9z"/>
	<path class="st1" d="M167.1,66c-8.4,0-16.3-3.1-22.4-8.8c-6.1,5.7-14,8.8-22.4,8.8s-16.3-3.1-22.4-8.8C93.9,62.9,86,66,77.6,66
		c-8.4,0-16.3-3.1-22.4-8.8c-6.1,5.7-14,8.8-22.4,8.8C14.8,66,0,51.2,0,33C0,14.8,14.8,0,32.9,0c8.4,0,16.3,3.1,22.4,8.8
		C61.4,3.1,69.3,0,77.6,0S93.9,3.1,100,8.8c6.1-5.7,14-8.8,22.4-8.8s16.3,3.1,22.4,8.8c6.1-5.7,14-8.8,22.4-8.8
		C185.2,0,200,14.8,200,33C200,51.2,185.2,66,167.1,66z M144.7,51.9l1.3,1.4c5.6,5.8,13,9,21,9c16.1,0,29.2-13.1,29.2-29.3
		c0-16.1-13.1-29.3-29.2-29.3c-8,0-15.5,3.2-21,9l-1.3,1.4l-1.3-1.4c-5.6-5.8-13-9-21-9s-15.5,3.2-21,9l-1.3,1.4l-1.3-1.4
		c-5.6-5.8-13-9-21-9s-15.5,3.2-21,9l-1.3,1.4l-1.3-1.4c-5.6-5.8-13-9-21-9C16.8,3.7,3.7,16.9,3.7,33c0,16.1,13.1,29.3,29.2,29.3
		c8,0,15.5-3.2,21-9l1.3-1.4l1.3,1.4c5.6,5.8,13,9,21,9c8,0,15.5-3.2,21-9l1.3-1.4l1.3,1.4c5.6,5.8,13,9,21,9s15.5-3.2,21-9
		L144.7,51.9z"/>
</g>
</svg>
