<?xml version="1.0" encoding="utf-8"?>
<!-- Generator: Adobe Illustrator 27.8.1, SVG Export Plug-In . SVG Version: 6.00 Build 0)  -->
<svg version="1.1" id="Layer_1" xmlns="http://www.w3.org/2000/svg" xmlns:xlink="http://www.w3.org/1999/xlink" x="0px" y="0px"
	 viewBox="0 0 27.8 15.4" style="enable-background:new 0 0 27.8 15.4;" xml:space="preserve">
<style type="text/css">
	.st0{fill:#FFFFFF;stroke:#E41E2B;stroke-width:4;stroke-linejoin:round;stroke-miterlimit:10;}
	.st1{fill:#FFFFFF;}
</style>
<g>
	<g>
		<g>
			<g>
				<path class="st0" d="M6.2,13.4c-0.6,0-1.5-0.1-1.9-0.7c-0.3,0.8-1.5,0.7-2.2,0.7l0-1.7c0.5,0,0.6-0.2,0.6-0.7V8.3H2V6.7h2.6v3.9
					c0,0,0.1,0.2,0.1,0.2c0.2,0.5,0.5,0.8,1,0.9c0.1,0,0.3,0.1,0.3,0.1h7.4v1.6H6.2z M2.3,4V2.1h2.1V4H2.3z M2.3,6.2V4.4h2.1v1.8
					H2.3z M12.2,11.1c-0.4,0-1-0.2-1.3-0.5c0-0.1-0.3-0.4-0.3-0.4l0,0.1c-0.1,0.1-0.1,0.2-0.2,0.3c0,0-0.2,0.1-0.2,0.2
					C9.8,10.9,9.4,11,8.8,11c-0.5,0-1,0-1.5,0l0-0.5C7,11,6.6,11.2,6.1,11.2h-1V9.5c0.2,0,0.2-0.4,0.2-0.6V2.6l5.2,0
					c0.5,0,0.5-0.2,0.5-0.6h2.2c0,0.2,0,0.4,0,0.6c0,1-0.9,1.4-1.7,1.4H7.6l0,0.6l5.5,0v1.9c0,0.1,0,0.1-0.1,0.1l-1.2,1.9
					c0,0.1,0,0.1,0,0.1c0.6,0.7,0.6,0.8,1.5,0.8v1.7H12.2z M7.6,6.9C7.5,6.9,7.5,7,7.6,6.9l0,2.5h0.7c0.2,0,0.8-0.3,0.9-0.5
					c0.1-0.1,0.1-0.2,0.1-0.2c0,0,0-0.1,0-0.1C9.1,8.4,7.6,6.9,7.6,6.9z M7.6,6.2v0.5l2.6,0c0.1,0,0.1,0,0.2,0L10.5,7
					c0.1,0,0.1,0,0.1-0.1l0.3-0.6L7.6,6.2z"/>
				<path class="st0" d="M14.7,2.3h11.1v9.6c0,0.5-0.2,1.1-0.7,1.3c-0.1,0-0.2,0.1-0.3,0.1H14.7V2.3z M23.8,3.9h-7.2v7.7h7.2V3.9z
					 M17.4,4.7H23l0,4.9c0,0.5-0.2,0.9-0.7,1c-0.1,0-0.3,0.1-0.3,0.1h-4.6V4.7z M21,6.6h-1.4v2.5H21V6.6z"/>
			</g>
		</g>
	</g>
</g>
<g>
	<g>
		<g>
			<g>
				<path class="st1" d="M6.2,13.4c-0.6,0-1.5-0.1-1.9-0.7c-0.3,0.8-1.5,0.7-2.2,0.7l0-1.7c0.5,0,0.6-0.2,0.6-0.7V8.3H2V6.7h2.6v3.9
					c0,0,0.1,0.2,0.1,0.2c0.2,0.5,0.5,0.8,1,0.9c0.1,0,0.3,0.1,0.3,0.1h7.4v1.6H6.2z M2.3,4V2.1h2.1V4H2.3z M2.3,6.2V4.4h2.1v1.8
					H2.3z M12.2,11.1c-0.4,0-1-0.2-1.3-0.5c0-0.1-0.3-0.4-0.3-0.4l0,0.1c-0.1,0.1-0.1,0.2-0.2,0.3c0,0-0.2,0.1-0.2,0.2
					C9.8,10.9,9.4,11,8.8,11c-0.5,0-1,0-1.5,0l0-0.5C7,11,6.6,11.2,6.1,11.2h-1V9.5c0.2,0,0.2-0.4,0.2-0.6V2.6l5.2,0
					c0.5,0,0.5-0.2,0.5-0.6h2.2c0,0.2,0,0.4,0,0.6c0,1-0.9,1.4-1.7,1.4H7.6l0,0.6l5.5,0v1.9c0,0.1,0,0.1-0.1,0.1l-1.2,1.9
					c0,0.1,0,0.1,0,0.1c0.6,0.7,0.6,0.8,1.5,0.8v1.7H12.2z M7.6,6.9C7.5,6.9,7.5,7,7.6,6.9l0,2.5h0.7c0.2,0,0.8-0.3,0.9-0.5
					c0.1-0.1,0.1-0.2,0.1-0.2c0,0,0-0.1,0-0.1C9.1,8.4,7.6,6.9,7.6,6.9z M7.6,6.2v0.5l2.6,0c0.1,0,0.1,0,0.2,0L10.5,7
					c0.1,0,0.1,0,0.1-0.1l0.3-0.6L7.6,6.2z"/>
				<path class="st1" d="M14.7,2.3h11.1v9.6c0,0.5-0.2,1.1-0.7,1.3c-0.1,0-0.2,0.1-0.3,0.1H14.7V2.3z M23.8,3.9h-7.2v7.7h7.2V3.9z
					 M17.4,4.7H23l0,4.9c0,0.5-0.2,0.9-0.7,1c-0.1,0-0.3,0.1-0.3,0.1h-4.6V4.7z M21,6.6h-1.4v2.5H21V6.6z"/>
			</g>
		</g>
	</g>
</g>
</svg>
