<?xml version="1.0" encoding="utf-8"?>
<!-- Generator: Adobe Illustrator 27.8.1, SVG Export Plug-In . SVG Version: 6.00 Build 0)  -->
<svg version="1.1" id="Layer_1" xmlns="http://www.w3.org/2000/svg" xmlns:xlink="http://www.w3.org/1999/xlink" x="0px" y="0px"
	 viewBox="0 0 53 15.3" style="enable-background:new 0 0 53 15.3;" xml:space="preserve">
<style type="text/css">
	.st0{fill:#E41E2B;stroke:#E41E2B;stroke-width:4;stroke-miterlimit:10;}
	.st1{fill:#FFFFFF;}
</style>
<g>
	<g>
		<g>
			<g>
				<path class="st0" d="M8.3,2.1l0.7,1.5c0,0.1,0.2,0.2,0.3,0.2c0,0,0.1,0,0.1,0V2.6H11v8.8H9.3v-6H8.7v3.1c0,0.1,0,0.2,0,0.2
					c-0.1,0.5-0.6,0.8-1,0.8H4.4l0,2.8c0,0.1,0,0.2,0,0.2c-0.1,0.4-0.3,0.7-0.7,0.9c0,0-0.2,0.1-0.2,0.1H2v-1.7h0.2
					c0.2-0.1,0.2-0.4,0.2-0.6V5.4H2V3.9c0.1,0,0.4-0.1,0.4-0.2l0.7-1.6c0,0,0.1-0.1,0.2-0.1h4.8C8.2,2,8.2,2.1,8.3,2.1z M4.6,3.7
					c-0.1,0-0.1,0-0.1,0.1L4.1,4.6c0,0.1,0,0.1,0.1,0.1h0.5V4.1h1.8v0.5H7c0,0,0.1,0,0.1-0.1S6.8,3.9,6.8,3.8c0-0.1-0.1-0.1-0.1-0.1
					H4.6z M6.7,6.1H4.5v0.4h2.2V6.1z M6.7,7.6H4.5V8h2.2V7.6z M8.8,12.3c-0.1,0.5-0.4,0.8-0.9,1c0,0-0.2,0.1-0.2,0.1h-3V9.6h4.2V12
					C8.9,12,8.8,12.2,8.8,12.3z M7.1,10.9H6.4v0.9h0.7V10.9z M12.8,13.1c-0.1,0-0.3,0.1-0.3,0.1h-1.9l0-1.5c0.6,0,0.9,0.1,0.9-0.6
					V2.1h2.1v9.8C13.5,12.4,13.3,12.9,12.8,13.1z"/>
				<path class="st0" d="M16.5,7.3C17,7.4,17.1,8,17,8.4c0,0.7,0,1.5,0,2.2c0,0.1,0.1,0.2,0.1,0.3c0.2,0.5,0.6,0.7,1.1,0.7H20V11
					h-2.2V9.7H20V9.2h-2.2V8.2H20V7.6h-2.2V6.3H20V5.7h-2.7V4.4H20V3.8h-2.3V2.5H20V2.1h2.6v0.4h3v2H26v1.3h-0.4v0.8
					c0,1-0.9,1.1-1.7,1.1h-1.3v0.6h2.9v1.1h-2.9v0.5h2.9V11h-2.9v0.7H26v1.5h-7.4c-0.7,0-1.5-0.1-2-0.7c-0.3,0.9-1.4,0.9-2.2,0.9
					v-1.8h0.1c0.3,0,0.5-0.2,0.5-0.5V8.2h-0.5V6.6H15V3.7h-0.6V2.2l1.7,0c0.7,0,0.9,0.5,0.9,1.1v3.2C17,6.9,16.8,7.2,16.5,7.3z
					 M23.7,3.8h-1.1v0.6h1.1V3.8z M23.8,5.7h-1.1v0.6h1.1V5.7z"/>
				<path class="st0" d="M30.8,2.4C30.8,2.5,30.8,2.5,30.8,2.4l7.6,0v1.3C38.4,4,38,4.4,38,4.5c0,0.1,0.4,0,0.5,0l0,7.3
					c0,0.3-0.1,0.9-0.3,1.1c-0.3,0.2-0.8,0.4-1.2,0.4h-1.8v-1.5h1.2v-0.4l-6.5,0c0,0.2,0,0.4,0,0.6c0,0.2-0.2,0.9-0.4,1
					c-0.1,0.1-0.7,0.3-0.8,0.3H27v-1.6h0.3c0.1-0.1,0.2-0.3,0.2-0.5V5.4H27l0-1.7c0.1,0,0.1,0,0.2,0c0.2,0,0.4-0.3,0.5-0.5l0.6-1.2
					C28.4,2,28.4,2,28.5,2h2.4C30.9,2.1,30.8,2.3,30.8,2.4z M31.9,6.2h-2v1h2V6.2z M31.9,9h-2v1h2V9z M35.2,4.4
					c0-0.1,0.3-0.4,0.3-0.4c0,0,0,0-0.1,0h-5.2c-0.1,0-0.1,0-0.1,0.1c0,0.1-0.2,0.4-0.2,0.4l5.2,0C35.2,4.5,35.2,4.5,35.2,4.4z
					 M36.4,6.2h-2.2v1h2.2V6.2z M36.4,8.9h-2.2v1h2.2V8.9z"/>
				<path class="st0" d="M43.2,2.1c0,0-0.1,0.4-0.2,0.5c0,0.1,0.1,0.1,0.1,0.1h7.4l0,1.1c0,0.1-0.1,0.1-0.1,0.1
					c0,0.1-0.5,1.1-0.5,1.1c0,0,0.1,0,0.1,0h0.9l0,4c0,0,0,0.1-0.1,0.2c-0.1,0.3-0.3,0.6-0.6,0.8c0,0-0.2,0.1-0.2,0.1h-7.8v1.6H51
					v1.5h-9.3c-0.5,0-1.2-0.1-1.5-0.6c0,0-0.1-0.2-0.1-0.3V6h-0.7V4.2c0.1,0,0.5,0.1,0.6-0.1l0.9-2c0-0.1,0-0.1,0.1-0.1L43.2,2.1
					C43.2,2.1,43.2,2.1,43.2,2.1z M47.9,4.1h-5.6c0,0-0.1,0-0.1,0.1c0,0.1-0.4,0.9-0.4,0.9c0,0,0,0,0.1,0h5.5c0.1,0,0.1,0,0.2-0.1
					L47.9,4.1C48,4.1,48,4.1,47.9,4.1z M44.3,6.9h-2.2v1.6h2.2V6.9z M48.6,6.9h-2.2v1.7h2.2V6.9z"/>
			</g>
		</g>
	</g>
</g>
<g>
	<g>
		<g>
			<path class="st1" d="M8.3,2.1l0.7,1.5c0,0.1,0.2,0.2,0.3,0.2c0,0,0.1,0,0.1,0V2.6H11v8.8H9.3v-6H8.7v3.1c0,0.1,0,0.2,0,0.2
				c-0.1,0.5-0.6,0.8-1,0.8H4.4l0,2.8c0,0.1,0,0.2,0,0.2c-0.1,0.4-0.3,0.7-0.7,0.9c0,0-0.2,0.1-0.2,0.1H2v-1.7h0.2
				c0.2-0.1,0.2-0.4,0.2-0.6V5.4H2V3.9c0.1,0,0.4-0.1,0.4-0.2l0.7-1.6c0,0,0.1-0.1,0.2-0.1h4.8C8.2,2,8.2,2.1,8.3,2.1z M4.6,3.7
				c-0.1,0-0.1,0-0.1,0.1L4.1,4.6c0,0.1,0,0.1,0.1,0.1h0.5V4.1h1.8v0.5H7c0,0,0.1,0,0.1-0.1S6.8,3.9,6.8,3.8c0-0.1-0.1-0.1-0.1-0.1
				H4.6z M6.7,6.1H4.5v0.4h2.2V6.1z M6.7,7.6H4.5V8h2.2V7.6z M8.8,12.3c-0.1,0.5-0.4,0.8-0.9,1c0,0-0.2,0.1-0.2,0.1h-3V9.6h4.2V12
				C8.9,12,8.8,12.2,8.8,12.3z M7.1,10.9H6.4v0.9h0.7V10.9z M12.8,13.1c-0.1,0-0.3,0.1-0.3,0.1h-1.9l0-1.5c0.6,0,0.9,0.1,0.9-0.6
				V2.1h2.1v9.8C13.5,12.4,13.3,12.9,12.8,13.1z"/>
			<path class="st1" d="M16.5,7.3C17,7.4,17.1,8,17,8.4c0,0.7,0,1.5,0,2.2c0,0.1,0.1,0.2,0.1,0.3c0.2,0.5,0.6,0.7,1.1,0.7H20V11
				h-2.2V9.7H20V9.2h-2.2V8.2H20V7.6h-2.2V6.3H20V5.7h-2.7V4.4H20V3.8h-2.3V2.5H20V2.1h2.6v0.4h3v2H26v1.3h-0.4v0.8
				c0,1-0.9,1.1-1.7,1.1h-1.3v0.6h2.9v1.1h-2.9v0.5h2.9V11h-2.9v0.7H26v1.5h-7.4c-0.7,0-1.5-0.1-2-0.7c-0.3,0.9-1.4,0.9-2.2,0.9
				v-1.8h0.1c0.3,0,0.5-0.2,0.5-0.5V8.2h-0.5V6.6H15V3.7h-0.6V2.2l1.7,0c0.7,0,0.9,0.5,0.9,1.1v3.2C17,6.9,16.8,7.2,16.5,7.3z
				 M23.7,3.8h-1.1v0.6h1.1V3.8z M23.8,5.7h-1.1v0.6h1.1V5.7z"/>
			<path class="st1" d="M30.8,2.4C30.8,2.5,30.8,2.5,30.8,2.4l7.6,0v1.3C38.4,4,38,4.4,38,4.5c0,0.1,0.4,0,0.5,0l0,7.3
				c0,0.3-0.1,0.9-0.3,1.1c-0.3,0.2-0.8,0.4-1.2,0.4h-1.8v-1.5h1.2v-0.4l-6.5,0c0,0.2,0,0.4,0,0.6c0,0.2-0.2,0.9-0.4,1
				c-0.1,0.1-0.7,0.3-0.8,0.3H27v-1.6h0.3c0.1-0.1,0.2-0.3,0.2-0.5V5.4H27l0-1.7c0.1,0,0.1,0,0.2,0c0.2,0,0.4-0.3,0.5-0.5l0.6-1.2
				C28.4,2,28.4,2,28.5,2h2.4C30.9,2.1,30.8,2.3,30.8,2.4z M31.9,6.2h-2v1h2V6.2z M31.9,9h-2v1h2V9z M35.2,4.4
				c0-0.1,0.3-0.4,0.3-0.4c0,0,0,0-0.1,0h-5.2c-0.1,0-0.1,0-0.1,0.1c0,0.1-0.2,0.4-0.2,0.4l5.2,0C35.2,4.5,35.2,4.5,35.2,4.4z
				 M36.4,6.2h-2.2v1h2.2V6.2z M36.4,8.9h-2.2v1h2.2V8.9z"/>
			<path class="st1" d="M43.2,2.1c0,0-0.1,0.4-0.2,0.5c0,0.1,0.1,0.1,0.1,0.1h7.4l0,1.1c0,0.1-0.1,0.1-0.1,0.1
				c0,0.1-0.5,1.1-0.5,1.1c0,0,0.1,0,0.1,0h0.9l0,4c0,0,0,0.1-0.1,0.2c-0.1,0.3-0.3,0.6-0.6,0.8c0,0-0.2,0.1-0.2,0.1h-7.8v1.6H51
				v1.5h-9.3c-0.5,0-1.2-0.1-1.5-0.6c0,0-0.1-0.2-0.1-0.3V6h-0.7V4.2c0.1,0,0.5,0.1,0.6-0.1l0.9-2c0-0.1,0-0.1,0.1-0.1L43.2,2.1
				C43.2,2.1,43.2,2.1,43.2,2.1z M47.9,4.1h-5.6c0,0-0.1,0-0.1,0.1c0,0.1-0.4,0.9-0.4,0.9c0,0,0,0,0.1,0h5.5c0.1,0,0.1,0,0.2-0.1
				L47.9,4.1C48,4.1,48,4.1,47.9,4.1z M44.3,6.9h-2.2v1.6h2.2V6.9z M48.6,6.9h-2.2v1.7h2.2V6.9z"/>
		</g>
	</g>
</g>
</svg>
