<?xml version="1.0" encoding="utf-8"?>
<!-- Generator: Adobe Illustrator 27.8.1, SVG Export Plug-In . SVG Version: 6.00 Build 0)  -->
<svg version="1.1" id="Layer_1" xmlns="http://www.w3.org/2000/svg" xmlns:xlink="http://www.w3.org/1999/xlink" x="0px" y="0px"
	 viewBox="0 0 100 44" style="enable-background:new 0 0 100 44;" xml:space="preserve">
<style type="text/css">
	.st0{fill:#FFFFFF;}
</style>
<g>
	<path class="st0" d="M20.7,42.2h-2.2v-2.4h2.2v-0.4h-2.5v-1.2h1.2c0.1,0,0.1-0.1,0.2-0.1c0,0,0,0,0,0c0,0-0.7,0-0.8,0
		c-0.3-0.2-0.4-0.4-0.4-0.7h1c0.2,0,0.3,0.3,0.5,0.3c0,0,0,0,0,0l0.3-0.5c0,0-1.7,0-1.8,0v-0.9h3.9v1.2c0,0,0,0.1-0.1,0.1l-0.7,1
		c0,0,0.7,0,0.7,0l0,1.8c0,0.4-0.3,0.7-0.7,0.7H20v0.4h2.2v0l0,2.1c0,0,0,0.1,0,0.1c-0.1,0.2-0.2,0.4-0.5,0.5c0,0-0.1,0-0.1,0h-3.1
		v-1.2h2.2V42.2z M24.9,36.1h1.4c-0.1,0.1-0.2,0.3-0.3,0.4c0,0.1-0.1,0.1-0.1,0.2c-0.1,0.2-0.2,0.2-0.3,0.3c0,0-0.1,0-0.1,0l-1,0
		c0,0,0,0,0,0l0.2,0.3c0,0.1,0.1,0.1,0.2,0.1c0.2,0,0.3-0.2,0.4-0.2h1.2c-0.2,0.3-0.4,0.5-0.7,0.6h-0.8c0.1,0.1,0.1,0.1,0.2,0.2
		c0,0,0,0.1,0.1,0.1c0,0,0,0,0,0h1.2V39l-0.2,0c-0.1,0-0.2,0.1-0.2,0.2c0.1,0.2,0.2,0.3,0.4,0.3v0.9H25c-0.2-0.1-0.3-0.3-0.3-0.5
		c0-0.2,0-0.4,0-0.5l-0.3,0c-0.2,0-0.1,0.7-0.3,0.9c-0.1,0.1-0.3,0.1-0.4,0.1h-1.2v-0.9h0.2c0.1-0.1,0.1-0.2,0.1-0.3v-0.9h0.5
		c0,0,0,0,0,0c0-0.1-0.9-2.1-0.9-2.2c0,0,0,0,0.1,0h1.5c0,0,0.1,0,0.1,0l0.1,0.2c0.1,0.1,0.3,0,0.4,0c0,0,0.1,0,0.1,0l0.1-0.2
		C24.8,36.1,24.9,36.1,24.9,36.1z M25.1,43.8c-0.2,0-0.5-0.3-0.6-0.3c-0.2,0-0.5,0.3-0.7,0.3h-1.3v-1h0.6c0.1,0,0.2-0.1,0.3-0.2
		c0,0,0,0,0,0c0-0.1-0.7-0.6-0.7-0.7c0,0,1.1,0,1.2,0c0,0,0.1,0,0.1,0l0.1-0.2c0,0-1.5,0-1.7,0v-0.1l0-0.9c0,0,0,0,0-0.1h3.7v0.8
		c0,0,0,0.1-0.1,0.1l-0.8,0.9c0,0,0,0,0,0.1l0.3,0.2c0,0,0.1,0,0.1,0h0.5v1H25.1z"/>
	<path class="st0" d="M29.4,37.4v1.9H30v1.3h-0.6v2.1h1.2c0,0,0.1,0,0.1-0.1l0.4-0.9c0,0,0-0.1,0.1-0.1h1.4c0,0,0.1,0,0.1,0
		c0,0-0.6,1.3-0.6,1.5c-0.1,0.3-0.4,0.6-0.8,0.6h-4.2v-1.2h0.9v-2.1h-0.7v-1.3h0.7v-1.9h-0.8v-1.3h3v1.3H29.4z M35.1,41
		c-0.1,0.2-0.2,0.4-0.4,0.4v1.3h0.6v1.1l-1.2,0c-0.4,0-0.8-0.1-0.9-0.5c0,0-0.1-0.2-0.1-0.2c0-0.5,0-1.1,0-1.6h-2.6v-5.4h4.6v4.7
		C35.1,40.9,35.1,41,35.1,41z M33.6,37.2H32v0.5h1.6V37.2z M33.6,38.6H32v0.5h1.6V38.6z M33.6,40H32v0.4h1.6V40z"/>
	<path class="st0" d="M37.8,38.7v5.2h-1.4v-4.5h-0.5v-1.1H36l0.1-0.1c0.1,0,0.2-0.3,0.2-0.4l0.4-1.8c0,0,0-0.1,0.1-0.1h1.4
		c0,0,0.1,0,0.1,0.1c-0.1,0.2-0.6,2.5-0.6,2.6C37.6,38.7,37.8,38.7,37.8,38.7z M40.5,36.4h3.3v2.6h-1.4v-1.3h-2.3c0,0-0.1,0-0.1,0.1
		c-0.1,0.2-0.1,0.4-0.2,0.6c0,0-0.1,0.1-0.1,0.1c-0.2,0.2-0.4,0.4-0.7,0.5c0,0-0.1,0-0.1,0h-1v-1.2h0.2c0.2-0.1,0.3-0.4,0.4-0.6
		l0.3-1C39,36,39,36,39,36h1.4c0,0,0,0,0.1,0C40.5,36.1,40.5,36.2,40.5,36.4C40.5,36.3,40.5,36.4,40.5,36.4z M38.2,42.4
		c0.2-0.1,0.2-0.3,0.2-0.5l0.3-2.6c0,0,0,0,0-0.1l1.4,0c0,0,0,0,0,0.1l-0.3,3.4c0,0.4-0.2,0.7-0.6,0.8c-0.1,0-0.1,0-0.2,0h-0.9v-1.1
		C38.1,42.5,38.1,42.4,38.2,42.4z M40.2,42.7c0.2,0,0.3-0.4,0.3-0.5V38h1.4V43c0,0.1,0,0.1,0,0.2c-0.1,0.3-0.2,0.5-0.5,0.7
		c0,0-0.1,0-0.2,0H40v-1.3C40.1,42.7,40.1,42.7,40.2,42.7z M43.2,43.6c0,0-0.1,0-0.2-0.1c-0.3-0.1-0.6-0.4-0.6-0.8l-0.3-3.5
		c0,0,0,0,0-0.1l1.4,0c0,0,0,0,0,0.1l0.3,2.8c0,0.2,0.1,0.2,0.3,0.3h0.1v1.2H43.2z"/>
	<path class="st0" d="M48.7,36.8c0,0,0,0.1,0,0.1c-0.1,0.3-0.3,0.4-0.6,0.5c0,0-0.2,0-0.2,0c-0.1,0-0.3,0-0.4,0V38h1.6v-0.1l0-1.9
		V36h1.5c0,0,0,0,0,0.1l0.2,1.9c0,0,0,0,0,0.1h0.4v-1.7h1.3V38h0.4v1.2h-2.1v0l0.1,1.7v0H51c0,0,0.1,0,0.1,0l0.4-1.4
		c0,0,0.1-0.1,0.1-0.1l1.4,0c0,0,0,0,0,0c0,0-0.4,1.6-0.4,1.8c-0.1,0.4-0.4,0.7-0.8,0.9c-0.1,0-0.2,0.1-0.2,0.1
		c-0.2,0-0.3,0-0.5,0.1c0,0,0,0,0,0c0,0.1,0,0.3,0,0.4c0,0.1,0.2,0.1,0.2,0.1h1.6v1.2l-2.4,0c-0.4,0-0.7-0.2-0.9-0.5
		c0,0-0.1-0.1-0.1-0.1c0-0.3-0.1-0.7-0.1-1c0,0-0.1-0.1-0.1-0.1h-0.7V41l0.7,0c0,0,0,0,0,0l-0.2-1.7c0,0,0,0,0,0h-1.6v0.4h0.9v1.2
		h-0.9v2.3c0,0.1,0,0.1,0,0.2c-0.1,0.4-0.4,0.6-0.7,0.6c-0.1,0-0.1,0-0.2,0h-1.7v-1.2h0.7c0.2,0,0.3-0.1,0.4-0.2l0-0.5
		c-0.1,0.1-0.3,0.2-0.5,0.2h-0.7v-1.2H45c0.1-0.1,0.2-0.2,0.3-0.3l0.6-0.7c0,0,0,0,0-0.1v-0.8h-1.2V38h1.1v-0.5h-1.2v-1.2h1.9
		c0.5,0,0.4-0.3,0.6-0.3h1.5V36.8z"/>
	<path class="st0" d="M58.4,36.4H64v1.2h-2.9v1.3H64v1.2h-2.8v1.4h3.1v1.2h-3.1v1.2h-1.6v-1.2h-3.4v-1.2h0.3v-2.6h3v-1.3h-1.7
		c-0.1,0.4-0.3,0.7-0.7,0.9c0,0-0.1,0.1-0.2,0.1h-1v-1.1c0.2,0,0.5-0.2,0.5-0.3l0.5-1.1c0,0,0-0.1,0.1-0.1h1.3c0,0,0,0,0,0
		C58.5,36.1,58.4,36.3,58.4,36.4C58.4,36.4,58.4,36.4,58.4,36.4z M59.6,40.1h-1.7v1.4h1.7V40.1z"/>
	<path class="st0" d="M69.8,37.3h3.2V40c0,0.4-0.2,0.7-0.6,0.9c0,0-0.2,0.1-0.2,0.1h-2.3c0,0-0.1,0-0.1,0l0,0.1
		c0,0.1,0.4,0.3,0.5,0.3l1.5,1.1c0.1,0.1,0.4,0.2,0.5,0.2c0.3,0,0.6,0,0.9,0v1.2h-1.6c-0.4,0-0.7-0.1-1-0.4
		c-0.1-0.1-0.1-0.1-0.2-0.2c-0.4-0.3-0.8-0.6-1.2-0.9c0,0,0,0-0.1,0c0,0,0,0,0,0l-0.6,1.1c-0.3,0.2-0.5,0.3-0.9,0.3H65v-1.2l1.7,0
		c0.2,0,0.5-0.1,0.5-0.2c0,0,0.1-0.1,0.1-0.2c0,0,0,0,0,0h-2.4v-1h2.9c0.1,0,0.1-0.2,0.2-0.3c0,0,0,0,0,0h-3v-3.6h3.1V37h-3.1v-0.9
		h8V37h-3.2V37.3z M68.1,38.2h-1.6v0.4h1.6V38.2z M68.1,39.6h-1.6V40h1.6V39.6z M71.3,38.2h-1.6v0.4h1.6V38.2z M71.3,39.6h-1.6V40
		h1.6V39.6z"/>
	<path class="st0" d="M76,44c-0.3,0-0.6-0.2-0.8-0.4c-0.2,0.5-1,0.4-1.4,0.4l0-1.2c0.2,0,0.3-0.1,0.3-0.3v-2.1h-0.3v-1.1h1.8l0,3
		c0,0.3,0.4,0.4,0.6,0.4h5.7V44H76z M74.1,37.5v-1.2h1.5v1.2H74.1z M74.1,39.1v-1.2h1.5v1.2H74.1z M80.8,39.5v3h-1.5v-2.9h-1.5
		l0,2.1c0,0,0,0.2-0.1,0.2c-0.2,0.4-0.6,0.6-1,0.6H76v-1.2h0.4v-5l3.7,0c0.2,0,0.3-0.1,0.3-0.3h1.4v0.6c0,0.1-0.1,0.2-0.1,0.3
		c-0.2,0.4-0.8,0.5-1.3,0.5h-2.6v0.9h4.1v1.1H80.8z"/>
</g>
<g id="XMLID_00000160874693114168838610000012185565128611240864_">
	<g id="XMLID_00000135657350874557978150000015438075559817272724_">
		<g id="XMLID_00000171001667307638431740000013528529635264666249_">
			<path id="XMLID_00000014601778178374894440000011908097447805190571_" class="st0" d="M91.9,28.4c0.2,0.1,0.3,0.2,0.4,0.4
				c0.1,0.2,0.2,0.4,0.2,0.6c0,0.2-0.1,0.4-0.2,0.6c-0.1,0.2-0.2,0.3-0.4,0.4c-0.2,0.1-0.4,0.2-0.6,0.2c-0.2,0-0.4-0.1-0.6-0.2
				c-0.2-0.1-0.3-0.2-0.4-0.4c-0.1-0.2-0.2-0.4-0.2-0.6c0-0.2,0.1-0.4,0.2-0.6c0.1-0.2,0.2-0.3,0.4-0.4c0.2-0.1,0.4-0.2,0.6-0.2
				C91.5,28.3,91.7,28.3,91.9,28.4z M91.8,30.2c0.1-0.1,0.2-0.2,0.3-0.3c0.1-0.1,0.1-0.3,0.1-0.5c0-0.2,0-0.3-0.1-0.5
				c-0.1-0.1-0.2-0.2-0.3-0.3c-0.1-0.1-0.3-0.1-0.5-0.1c-0.2,0-0.3,0-0.5,0.1c-0.1,0.1-0.3,0.2-0.3,0.3c-0.1,0.1-0.1,0.3-0.1,0.5
				c0,0.2,0,0.3,0.1,0.5c0.1,0.1,0.2,0.2,0.3,0.3c0.1,0.1,0.3,0.1,0.5,0.1C91.5,30.3,91.6,30.3,91.8,30.2z M91.7,29.4
				c0,0.1-0.1,0.1-0.1,0.1l0.3,0.4h-0.3l-0.2-0.4h-0.2v0.4h-0.3v-1h0.6c0.1,0,0.2,0,0.2,0.1c0.1,0.1,0.1,0.1,0.1,0.2
				C91.8,29.3,91.8,29.3,91.7,29.4z M91.1,29.3h0.3c0,0,0.1,0,0.1,0c0,0,0,0,0-0.1c0,0,0-0.1,0-0.1c0,0,0,0-0.1,0h-0.3V29.3z"/>
		</g>
		<g id="XMLID_00000111178907904806865780000010451298778284296100_">
			<polygon id="XMLID_00000070825466330352222580000010929817138987343758_" class="st0" points="52.1,7.9 49.1,7.9 47.4,10.7 
				50.4,10.7 			"/>
			<path id="XMLID_00000029732721216329305150000012066008224873369999_" class="st0" d="M43.3,31.3c-2.4-1.7-5.3-2.4-8-2.3
				c-2.7,0.1-3.9,2.1-3.9,2.1c-1.2-2.1-3.6-3.4-7.3-3.4c-6,0.1-11.9,2.8-16.6,2.8c-4.5,0-7.8-2.8-7.7-7.8C0.2,14,7.6,6.1,13.2,2.5
				c3.2-2,5.9-2.7,7.6-2.5c1.3,0.1,2.8,1.6,1.8,3.8c-1.4,3.2-3.4,2.9-3.3,1.4c0-1,0.7-1.6,1.2-1.9C20.8,3,21.4,3,21.7,3
				c0.3-0.2,0.5-2-1.8-1.4c-2.3,0.6-5,2.8-7.7,5.7c-2.6,2.9-6.7,8.4-7.7,14.1c-0.5,2.7-0.2,7.5,6.2,7.5c5.4,0,13.3-3.6,20.5-3.5
				c2.8,0,5.3,0.8,7.2,2C40.3,28.5,42.5,30.2,43.3,31.3 M45,15.4h1.1c0,0-5.5,8-8.6,7.6c-1.7-0.2-1.2-2.3-1.2-2.3s-2.4,2.9-4.7,2.3
				c-2-0.5-0.7-3.9-0.7-3.9c-0.2,0.1-4.6,5.1-7.7,3.9c-3.2-1.2-1.6-5.4-0.9-6.6c0.5-1.1,1.1-2.1,1.1-2.1s-0.5,0.1-0.8,0.2
				c-0.3,0.1-0.8,0.2-0.8,0.2s-1.5,2.5-2.5,3.7s-4.9,5.5-7.2,4.7c-2.3-0.9-1.8-4.1-0.4-6.7c2.1-4.2,7.2-9.4,10.2-8.6
				c3.1,0.8,0.5,5.8,0.5,5.8s0.6,0.1,2.1-0.9c2.1-1.4,4.9-5.3,7.9-4.9c1.4,0.2,2.7,1.7,0.9,4.4c-0.6,0.9-1.5,1.7-2.3,0.9
				c-0.5-0.5-0.1-1.4,0.4-2c0.7-0.9,1.6-0.7,1.6-0.7s0.5-1.1-0.8-1.1c-1,0-3.6,2.4-5.1,4.8c-1.3,2.2-3.4,6-1.3,6.8
				c1.9,0.8,5.5-3.5,7.1-5.7c1.7-2.2,5.4-7.3,8.6-7.5c1.1-0.1,1.7,0.9,1.7,0.9l0.4-0.6h3.2c0,0-6,9.9-6.4,10.7
				c-0.4,0.6-0.9,1.9,0.5,1.2C42.2,19,45,15.4,45,15.4 M20.5,14.4c-0.1,0-0.9-0.2-1.6-0.7c-0.8-0.5-1.1-1.2-1.2-1.3
				c0-0.1-0.1,0-0.1,0c0,0-0.2,0.3-1.3,1.9c-1.1,1.7-2.8,5-1.2,5.6c1,0.4,2.7-1.4,3.6-2.6c0.8-1.1,1.9-2.7,1.9-2.8
				C20.6,14.4,20.6,14.4,20.5,14.4 M21.8,9.1c-0.8-0.6-2.9,0.8-2.9,2.3c0,1.5,1.9,2,2.2,2c0,0,0.2,0.1,0.3-0.1
				c0.1-0.1,0.3-0.6,0.6-1.4C22.2,11.2,22.6,9.7,21.8,9.1 M37.9,17.4c1.3-1.7,4.8-7.9,4.8-7.9s-0.1-0.4-0.5-0.4
				c-0.5,0-1.3,0.1-2.9,2.2c-1.6,2-2.9,3.6-3.8,5.3c-1,1.8-1.4,3.1-0.9,3.5c0.2,0.1,0.4,0.1,0.6,0.1c0.4-0.1,0.9-0.5,1.5-1.2
				C37.1,18.4,37.5,18,37.9,17.4 M96.4,3c-2.2,1.4-5.3,2.7-8.2,2.4c-0.7,0.8-1.5,1.7-2.4,2.6c5.1,1,9.6-2.2,12-4.9
				C99.3,1.5,100,0,100,0S98.6,1.6,96.4,3 M87.6,26.2c-0.4,0.7-0.9,2,0.5,1.2c1.7-1,4.1-4.7,4.1-4.7h1.1c0,0-1.5,2.3-3.3,4.4
				c-1.7,1.9-3.8,3.7-5.3,3.5c-1.7-0.2-1.2-2.5-1.2-2.5s-2.5,2.6-4.2,2.5c-2.3-0.3-1.6-3.1-1.6-3.1s-2.6,3.2-4.4,3.1
				c-2.8-0.2-2.1-3.6-1.3-6c0.4-1.3,0.8-2.3,0.8-2.3s-0.3,0.1-0.9,0.2c-0.3,0-0.9,0.1-0.9,0.1s-1.2,2.1-2.1,3.3
				c-0.9,1.2-4.9,5.5-7.2,4.7c-2.2-0.8-1.4-4.1-0.2-6.7c1.8-3.8,7-9.3,10-8.6c3.1,0.7,0.1,6.4,0.1,6.4s0,0,0,0c0.1,0,0.2,0,0.6,0
				c0.6-0.1,1.1-0.3,1.1-0.3s3.1-6.5,6.5-10.7c3.4-4.3,10.3-11.6,13-9.8c0.7,0.4,0.4,1.9-0.5,3.8c-0.4,0.1-0.8,0.2-1.2,0.3
				c0.6-1.1,1-2,1.1-2.6c0.4-2.2-4.7,2.4-8.4,7.4c-3.7,5-5.9,9.5-5.9,9.5s0.7-0.4,1.9-1.3c1.2-1,2.9-2.5,4.7-4.3
				c1.2-1.2,2.6-2.8,4-4.6c0.4,0,0.8-0.1,1.2-0.1c-1.5,2-3,3.8-4.4,5.2c-1.5,1.5-3,3.1-4.4,4.2c-2.2,1.8-3.9,2.9-3.9,2.9
				s-3.2,6.5-1.5,6.9c1,0.2,3-2.9,3-2.9s2.6-4,4.2-5.8c2.2-2.5,4-3.9,5.9-3.9c1.1,0,1.7,1.1,1.7,1.1l0.5-0.8H94
				C94,15.5,88.1,25.5,87.6,26.2 M69.9,22.3c-0.1,0-0.7-0.3-1.5-0.9c-0.7-0.6-1.1-1.3-1.1-1.3c0-0.1-0.1,0-0.1,0
				c0,0-0.2,0.2-1.3,1.8c-1.1,1.7-2.9,5.1-1.3,5.6c1,0.4,2.7-1.4,3.6-2.5c0.8-1.1,1.6-2.5,1.7-2.6C70,22.3,69.9,22.3,69.9,22.3
				 M71.5,19.5c0.3-0.8,0.7-2.3-0.1-2.8c-0.8-0.6-2.9,0.8-2.9,2.3c0,1.5,1.5,2.2,1.8,2.3c0.2,0.1,0.3,0,0.4-0.1
				C70.7,21.1,71.2,20.3,71.5,19.5 M89.6,17.4c0.1-0.1,0.1-0.2,0.1-0.2s-0.1-0.4-0.5-0.4c-0.5,0-1.2,0.1-2.9,2
				c-1.7,1.9-2.8,3.6-3.7,5.3c-1,1.8-1.4,3.2-0.8,3.5c0.2,0.1,0.4,0.1,0.6,0.1c0.4-0.1,0.8-0.5,1.5-1.2c0.3-0.4,0.7-0.9,1.1-1.4
				C86.1,23.3,89,18.4,89.6,17.4 M96.4,3c-2.2,1.4-5.3,2.7-8.2,2.4c-0.7,0.8-1.5,1.7-2.4,2.6c5.1,1,9.6-2.2,12-4.9
				C99.3,1.5,100,0,100,0S98.6,1.6,96.4,3 M82,6.7c-2.4-1.2-4.2-2.8-6-3.7c-1.8-0.9-2.9-1.3-4.3-1.1c-0.2,0-0.6,0.1-0.6,0.1
				s0.7,2.5-2.2,6.7c-2.9,4.3-5.6,4.2-6.4,3.1c-0.8-1.2,0.2-3.7,1.9-6c1.8-2.3,5-4.3,5-4.3s-1-0.6-3.5,0.8
				c-2.4,1.4-6.6,4.6-10.4,10.1c-3.8,5.5-4.6,8.5-5.2,10.9c-0.6,2.4,0,4.9,2.6,4.9c2.6,0,5.7-4,6.6-5.4c1.6-2.6,2.7-6.6,0.5-6
				c-1.1,0.3-2,1.5-2.5,2.6c-0.6,1.2-0.8,2.3-0.8,2.3s-0.9,0.3-2.1,1.2c-1.2,0.9-2,1.8-2,1.8s0-1.9,1.5-5c1.5-3.1,4.3-4.5,5.9-4.6
				c1.4-0.1,3.3,1.1,1.7,5.5c-1.6,4.4-6.2,9.8-11,9.9c-4.5,0.1-7.4-5.6-1.2-15.6C56.3,4,64.3,0.6,67,0.2C69.6-0.2,70.4,1,70.4,1
				s2.2-1,5-0.8c3.2,0.2,5.7,2.5,9,4.1C83.5,5.1,82.7,5.9,82,6.7 M70.1,2.4c0,0-1.9,0.7-4.1,3.1c-2.2,2.4-3.4,5.1-2.5,5.8
				c0.4,0.3,1.2,0.3,2.7-1c1.2-1.1,2.4-2.4,3.2-4.4C70.4,3.5,70.1,2.4,70.1,2.4"/>
		</g>
	</g>
</g>
</svg>
