<?xml version="1.0" encoding="utf-8"?>
<!-- Generator: Adobe Illustrator 27.8.1, SVG Export Plug-In . SVG Version: 6.00 Build 0)  -->
<svg version="1.1" id="Layer_1" xmlns="http://www.w3.org/2000/svg" xmlns:xlink="http://www.w3.org/1999/xlink" x="0px" y="0px"
	 viewBox="0 0 32.4 15.5" style="enable-background:new 0 0 32.4 15.5;" xml:space="preserve">
<style type="text/css">
	.st0{fill:#E9C47D;}
</style>
<g>
	<g>
		<g>
			<path class="st0" d="M0.3,8V6.1h1.3V2.8H0.1V0.9h5.5v1.9H4.3v3.3h1.1V8H4.3v3.7c0.4-0.1,1-0.3,1.5-0.4v1.9
				C4,13.9,2.1,14.3,0,14.6v-2.2c0.5-0.1,1-0.1,1.5-0.1V8H0.3z M7.3,8.1V7.2H5.9V5.4h9.5v1.9h-1.9v6c0,0.2,0.1,0.3,0.3,0.3h0.1
				c0.2,0,0.3-0.1,0.3-0.3v-0.7h1.7v0.9c0,1.2-0.6,1.9-1.9,1.8h-1c-1.4,0-2.1-0.7-2.1-2v-6H10v0.9c0.2,3.7-1.2,6.1-4.3,7.4v-1.8
				C6.8,12.6,7.4,10.7,7.3,8.1z M6.6,2.7V0.8h8.2v1.9H6.6z"/>
		</g>
		<g>
			<path class="st0" d="M19.6,15.2h-2.8c0.9-1.9,1.4-4.2,1.6-6.8h2.4C20.8,11,20.4,13.3,19.6,15.2z M19.6,0.4c0.5,1.2,0.9,2.2,1,3.2
				H18c-0.1-0.9-0.4-2-0.9-3.2H19.6z M19.7,4.4c0.5,1,0.8,2.1,1.1,3.3h-2.6c-0.1-1.1-0.4-2.2-0.9-3.3H19.7z M21.1,8.7V6.8h4V3.6
				h-3.4V1.7h3.4V0H28v1.7h3.6v1.9H28v3.2h4.3v1.9H27c-0.6,1.5-1.5,2.9-2.6,4c1.5,0,3-0.1,4.7-0.2c-0.2-0.8-0.5-1.5-0.7-2.3h2.3
				c0.7,1.6,1.2,3.2,1.5,5h-2.5c0-0.3-0.1-0.6-0.2-0.9c-2.5,0.3-5.1,0.5-7.7,0.5v-2.1c0.9-1.2,1.6-2.6,2-4H21.1z"/>
		</g>
	</g>
</g>
</svg>
