<?xml version="1.0" encoding="utf-8"?>
<!-- Generator: Adobe Illustrator 27.8.1, SVG Export Plug-In . SVG Version: 6.00 Build 0)  -->
<svg version="1.1" id="Layer_1" xmlns="http://www.w3.org/2000/svg" xmlns:xlink="http://www.w3.org/1999/xlink" x="0px" y="0px"
	 viewBox="0 0 100 86.3" style="enable-background:new 0 0 100 86.3;" xml:space="preserve">
<style type="text/css">
	.st0{fill:#FFFFFF;}
	.st1{fill:#E41E2B;}
</style>
<g>
	<g>
		<path class="st0" d="M67.9,20.2l-1.8-8.4H33.9l-1.8,8.4H11.8v54.2h76.3V20.2H67.9z M50,64.5c-9.3,0-16.8-7.5-16.8-16.8
			c0-9.3,7.5-16.8,16.8-16.8c9.3,0,16.8,7.5,16.8,16.8C66.8,57,59.3,64.5,50,64.5z"/>
		<path class="st1" d="M66.1,11.8l1.8,8.4h20.3v54.2H11.8V20.2h20.3l1.8-8.4H66.1 M50,64.5c9.3,0,16.8-7.5,16.8-16.8
			c0-9.3-7.5-16.8-16.8-16.8c-9.3,0-16.8,7.5-16.8,16.8C33.2,57,40.7,64.5,50,64.5 M75.7,0h-9.6H33.9h-9.6l-1.8,8.4H11.8H0v11.8
			v54.2v11.8h11.8h76.3H100V74.5V20.2V8.4H88.2H77.5L75.7,0L75.7,0z"/>
	</g>
</g>
</svg>
