<?xml version="1.0" encoding="utf-8"?>
<!-- Generator: Adobe Illustrator 27.8.1, SVG Export Plug-In . SVG Version: 6.00 Build 0)  -->
<svg version="1.1" id="Layer_1" xmlns="http://www.w3.org/2000/svg" xmlns:xlink="http://www.w3.org/1999/xlink" x="0px" y="0px"
	 viewBox="0 0 26.1 26.1" style="enable-background:new 0 0 26.1 26.1;" xml:space="preserve">
<style type="text/css">
	.st0{fill:#E41E2B;}
	.st1{fill:#F0D283;}
</style>
<g>
	<circle class="st0" cx="13.1" cy="13.1" r="12.3"/>
	<path class="st1" d="M13.1,26.1C5.9,26.1,0,20.2,0,13.1S5.9,0,13.1,0c7.2,0,13,5.9,13,13.1S20.2,26.1,13.1,26.1z M13.1,1.6
		C6.7,1.6,1.6,6.7,1.6,13.1s5.1,11.5,11.5,11.5c6.3,0,11.5-5.1,11.5-11.5S19.4,1.6,13.1,1.6z"/>
</g>
<g>
	<g>
		<g>
			<path class="st1" d="M12.1,16c0-0.5,0.3-0.8,0.8-0.8c0.5,0,0.8,0.3,0.8,0.8c0,0.5-0.3,0.8-0.8,0.8C12.4,16.9,12.1,16.5,12.1,16z
				 M13.3,14.3h-1l-0.2-5.7h1.3L13.3,14.3z"/>
		</g>
	</g>
</g>
</svg>
