<?xml version="1.0" encoding="utf-8"?>
<!-- Generator: Adobe Illustrator 27.8.1, SVG Export Plug-In . SVG Version: 6.00 Build 0)  -->
<svg version="1.1" id="Layer_1" xmlns="http://www.w3.org/2000/svg" xmlns:xlink="http://www.w3.org/1999/xlink" x="0px" y="0px"
	 viewBox="0 0 51.2 51.2" style="enable-background:new 0 0 51.2 51.2;" xml:space="preserve">
<style type="text/css">
	.st0{fill:#E41E2B;}
	.st1{fill:#F0D283;}
	.st2{fill:#E0BB7D;}
</style>
<g>
	<circle class="st0" cx="25.6" cy="25.6" r="24.5"/>
	<path class="st1" d="M25.6,51.2C11.5,51.2,0,39.7,0,25.6S11.5,0,25.6,0c14.1,0,25.6,11.5,25.6,25.6S39.7,51.2,25.6,51.2z M25.6,2.1
		C12.7,2.1,2.1,12.7,2.1,25.6s10.5,23.5,23.5,23.5c12.9,0,23.5-10.5,23.5-23.5S38.5,2.1,25.6,2.1z"/>
</g>
<g>
	<g>
		<g>
			<path class="st2" d="M15.4,19.7c0.1-1.9,0.5-3.6,1.5-5.1c0.9-1.5,2.2-2.6,3.9-3.4c1.7-0.8,3.7-1.2,6.1-1.2c2.2,0,4.1,0.4,5.8,1.1
				c1.6,0.7,2.9,1.7,3.8,3c0.9,1.3,1.3,2.7,1.3,4.2c0,1.4-0.4,2.6-1.1,3.8c-0.7,1.1-1.8,2.4-3.3,3.6c-1.6,1.4-2.6,2.4-3.2,3.1
				c-0.5,0.7-0.8,1.4-0.8,2.2v0.6h-6.6v-1.2c0-1.1,0.2-2.1,0.6-3c0.4-0.9,0.9-1.6,1.5-2.3c0.6-0.7,1.4-1.5,2.5-2.4
				c1.2-1.1,2-1.8,2.4-2.4c0.4-0.5,0.6-1.1,0.6-1.6c0-0.9-0.4-1.6-1.1-2.1c-0.7-0.5-1.7-0.7-2.7-0.7c-1.3,0-2.4,0.3-3.1,1
				c-0.8,0.7-1.2,1.6-1.3,2.8H15.4z M26.1,42.7c1.2,0,2.2-0.4,3-1.1s1.1-1.7,1.1-2.9c0-1.2-0.4-2.2-1.1-2.9s-1.7-1.1-3-1.1
				c-1.2,0-2.2,0.4-3,1.1c-0.7,0.8-1.1,1.7-1.1,2.9c0,1.2,0.4,2.2,1.1,2.9C23.9,42.3,24.9,42.7,26.1,42.7z"/>
		</g>
	</g>
</g>
</svg>
