<?xml version="1.0" encoding="utf-8"?>
<!-- Generator: Adobe Illustrator 27.8.1, SVG Export Plug-In . SVG Version: 6.00 Build 0)  -->
<svg version="1.1" id="Layer_1" xmlns="http://www.w3.org/2000/svg" xmlns:xlink="http://www.w3.org/1999/xlink" x="0px" y="0px"
	 viewBox="0 0 26.6 38.5" style="enable-background:new 0 0 26.6 38.5;" xml:space="preserve">
<style type="text/css">
	.st0{fill:#F0D283;}
	.st1{fill:none;stroke:#F0D283;stroke-width:2.098;stroke-miterlimit:10;}
</style>
<g>
	<path class="st0" d="M2.1,10.2H0V3.8C0,1.7,1.7,0,3.8,0h4.6v2.1H3.8c-1,0-1.7,0.8-1.7,1.7V10.2z"/>
	<path class="st0" d="M8.4,38.5H3.8c-2.1,0-3.8-1.7-3.8-3.8v-6.3h2.1v6.3c0,1,0.8,1.7,1.7,1.7h4.6V38.5z"/>
	<path class="st0" d="M26.6,10.2h-2.1V3.8c0-1-0.8-1.7-1.7-1.7h-4.6V0h4.6c2.1,0,3.8,1.7,3.8,3.8V10.2z"/>
	<path class="st0" d="M22.7,38.5h-4.6v-2.1h4.6c1,0,1.7-0.8,1.7-1.7v-6.3h2.1v6.3C26.6,36.7,24.9,38.5,22.7,38.5z"/>
	<path class="st1" d="M25.5,10.2"/>
	<path class="st1" d="M25.5,28.3"/>
	<path class="st1" d="M1,28.3"/>
	<path class="st1" d="M1,10.2"/>
	<path class="st1" d="M18.2,37.4"/>
	<path class="st1" d="M8.4,37.4"/>
	<path class="st1" d="M8.4,1"/>
	<path class="st1" d="M18.2,1"/>
</g>
</svg>
