<?xml version="1.0" encoding="utf-8"?>
<!-- Generator: Adobe Illustrator 27.8.1, SVG Export Plug-In . SVG Version: 6.00 Build 0)  -->
<svg version="1.1" id="Layer_1" xmlns="http://www.w3.org/2000/svg" xmlns:xlink="http://www.w3.org/1999/xlink" x="0px" y="0px"
	 viewBox="0 0 50.4 46.9" style="enable-background:new 0 0 50.4 46.9;" xml:space="preserve">
<style type="text/css">
	.st0{fill:#F0D283;}
</style>
<g>
	<g>
		<g>
			<path class="st0" d="M18.5,42.9L7.7,40.2C7.3,40,7,39.6,7.1,39.2l4.2-16.5l11.5,3L18.5,42.9z M27.4,26.9L23,44.1l10.8,2.8
				c0.4,0.1,0.8-0.1,0.9-0.6l4.2-16.5L27.4,26.9z M42.3,22.2l-1.6,6c-0.1,0.4-0.5,0.7-0.9,0.6l-12.1-3.1l1.9-7.4l-0.3-0.1l-4-1
				l-0.2-0.1l-1.9,7.4l-12.1-3.1c-0.4-0.1-0.7-0.5-0.6-0.9l1.6-6c0.1-0.4,0.5-0.7,0.9-0.6l8.1,2.1c-1.6-0.6-3.1-1.5-3.7-2.9
				c-0.3-0.7-0.5-1.8,0.3-3.3c0.6-1,1.5-1.7,2.6-1.8c2.1-0.3,4.4,0.9,5.9,2.2c1.4,1.2,2.1,2.7,2.5,3.9c0.9-0.6,2-1.4,3.4-1.9
				c1.8-0.8,4.3-0.6,5.9,0.5c1.2,0.8,1.9,2,1.9,3.4c0,1.6-0.7,2.4-1.2,2.9c-1,0.8-2.5,0.9-4,0.7l7,1.8
				C42.2,21.4,42.4,21.8,42.3,22.2z M26.7,15.2c-0.3-1-0.8-2.3-1.9-3.3c-0.9-0.8-1.9-1.3-2.8-1.6c-0.4-0.1-0.8-0.1-1.2-0.1
				c-0.4,0.1-0.8,0.3-1,0.7c-0.4,0.7-0.3,1-0.2,1.2c0.2,0.5,1.1,1.4,4.5,2.3L26.7,15.2L26.7,15.2z M30,16l2.3,0.6
				c1.5,0.4,4.2,1.1,5,0.4c0.1-0.1,0.3-0.3,0.3-1c0-0.6-0.3-1.1-0.9-1.5c-1-0.7-2.6-0.8-3.8-0.3C31.8,14.8,30.8,15.4,30,16z"/>
		</g>
	</g>
	<path class="st0" d="M13.9,5.4c0.2,0,0.2-0.3,0-0.4c-3-0.5-4.5-2-5-4.8c0-0.2-0.3-0.2-0.4,0C8,3,6.4,4.5,3.4,5
		c-0.2,0-0.2,0.3,0,0.4c3,0.5,4.5,2,5,4.8c0,0.2,0.3,0.2,0.4,0C9.3,7.4,10.9,5.8,13.9,5.4z"/>
	<path class="st0" d="M6.2,11c0.1,0,0.1-0.2,0-0.2c-1.8-0.3-2.7-1.2-3-2.9c0-0.1-0.2-0.1-0.2,0c-0.3,1.7-1.2,2.6-3,2.9
		C0,10.8,0,11,0.1,11c1.8,0.3,2.7,1.2,3,2.9c0,0.1,0.2,0.1,0.2,0C3.6,12.2,4.5,11.3,6.2,11z"/>
</g>
</svg>
