<?xml version="1.0" encoding="utf-8"?>
<!-- Generator: Adobe Illustrator 27.8.1, SVG Export Plug-In . SVG Version: 6.00 Build 0)  -->
<svg version="1.1" id="Layer_1" xmlns="http://www.w3.org/2000/svg" xmlns:xlink="http://www.w3.org/1999/xlink" x="0px" y="0px"
	 viewBox="0 0 36 5.3" style="enable-background:new 0 0 36 5.3;" xml:space="preserve">
<style type="text/css">
	.st0{fill:#FFFFFF;}
</style>
<g>
	<g>
		<g>
			<path class="st0" d="M0,5.2V4.4h1.6V0.1h1.1v0.8H5v0.9H2.7v2.7h2.5v0.8H0z"/>
		</g>
		<g>
			<path class="st0" d="M8.4,0.1v0.2h1v0.5h-1V1l1.3,0c0,0,0,0,0,0L9.5,0.1c0,0,0,0,0,0h0.9c0,0,0,0,0,0c0,0.1,0.1,0.8,0.1,0.9
				l0.2,0c0,0,0,0,0,0l-0.1-0.7c0,0,0,0,0,0h0.6c0,0.2,0.1,0.6,0.1,0.8h0.2v0.5h-0.8c0,0,0,0,0,0l0.2,1.7c0,0,0.1-0.1,0.1-0.1
				l0.1-1.5c0,0,0,0,0,0h0.4c0,0,0,0,0,0l-0.2,2.1c0,0.2-0.2,0.3-0.3,0.4l0,0.3c0,0,0,0,0.1,0h0.4v0.7l-1,0c-0.2,0-0.3-0.2-0.4-0.3
				c0,0,0-0.1,0-0.1c0-0.2,0-0.3,0-0.5c0,0,0,0,0,0H9.7V3.4h0.1c0,0,0,0,0,0L9.7,1.5c0,0,0,0,0,0H6.1V1h1.2V0.8H6.3V0.3h1.1V0.1H8.4
				z M8.3,1.6v0.1h1.2v0.4H8.3v0.2h1.2v1.2c0,0.2-0.2,0.5-0.4,0.5c-0.2,0-0.5,0-0.7,0v0.2h1.4v0.5H8.3v0.4h-1V4.9H6.2V4.3h1.2V4.1
				h-1V2.4h1V2.2H6.2V1.8h1.2V1.6H8.3z M7.4,2.9H7.1V3h0.2V2.9z M7.4,3.5H7.1v0.2h0.2V3.5z M8.7,2.9H8.3V3h0.4V2.9z M8.7,3.5H8.3
				v0.2h0.3V3.5z"/>
		</g>
		<g>
			<path class="st0" d="M13.5,1.8v3.4h-0.9V2.3h-0.3V1.6h0l0.1,0c0.1,0,0.1-0.2,0.1-0.2l0.2-1.2c0,0,0,0,0.1,0h0.9c0,0,0,0,0,0
				C13.8,0.3,13.4,1.8,13.5,1.8C13.4,1.8,13.5,1.8,13.5,1.8z M15.3,0.3h2.1V2h-0.9V1.1H15c0,0,0,0-0.1,0c0,0.1-0.1,0.3-0.1,0.4
				c0,0,0,0,0,0.1c-0.1,0.1-0.3,0.2-0.4,0.3c0,0-0.1,0-0.1,0h-0.6V1.2h0.2C14,1.1,14,0.9,14.1,0.8l0.2-0.6c0,0,0,0,0.1,0h0.9
				c0,0,0,0,0,0C15.3,0.2,15.2,0.2,15.3,0.3C15.2,0.3,15.3,0.3,15.3,0.3z M13.8,4.3c0.1,0,0.1-0.2,0.1-0.3L14,2.2c0,0,0,0,0,0l0.9,0
				c0,0,0,0,0,0l-0.2,2.2c0,0.2-0.1,0.5-0.4,0.5c0,0-0.1,0-0.1,0h-0.6L13.8,4.3C13.7,4.3,13.7,4.3,13.8,4.3z M15.1,4.4
				c0.1,0,0.2-0.2,0.2-0.3V1.3h0.9v3.3c0,0,0,0.1,0,0.1c0,0.2-0.1,0.3-0.3,0.4c0,0-0.1,0-0.1,0h-0.7V4.4C15,4.4,15,4.4,15.1,4.4z
				 M17,5C16.9,5,16.9,5,17,5c-0.3-0.1-0.5-0.3-0.5-0.5l-0.2-2.3c0,0,0,0,0,0l0.9,0c0,0,0,0,0,0l0.2,1.8c0,0.1,0.1,0.2,0.2,0.2h0V5
				H17z"/>
		</g>
		<g>
			<path class="st0" d="M20.9,5.1c-0.2,0.1-0.4,0.2-0.6,0.2h-1.7V1.6h-0.2V0.8c0.1,0,0.2-0.1,0.3-0.2l0.2-0.6c0,0,0,0,0.1,0h0.9
				c0,0,0,0,0,0c0,0.1-0.1,0.2-0.1,0.3c0,0,0,0,0,0h1.3v4.4C21.1,4.8,21.1,5,20.9,5.1z M20.2,1.2h-0.6v1.2h0.6V1.2z M20.2,3.1h-0.6
				v1.3h0.6V3.1z M23.6,5.1c-0.1,0.1-0.4,0.2-0.6,0.2h-0.7V4.4l0.2,0c0.1,0,0.2-0.1,0.2-0.2v-3h-0.4c-0.1,0-0.1,0.1-0.1,0.1
				c-0.2,0.2-0.3,0.2-0.6,0.2h-0.3l0-0.8c0.1,0,0.2-0.1,0.3-0.2l0.2-0.5c0,0,0,0,0.1,0h0.8c0,0,0,0,0,0c0,0-0.1,0.2-0.1,0.2
				c0,0,0,0,0,0h1.1c0,1.4,0,2.8,0,4.2C23.7,4.6,23.7,4.9,23.6,5.1z M22,4.2c-0.1,0-0.3-0.1-0.4-0.2c0-0.1-0.1-0.3-0.1-0.4l-0.2-1.9
				c0,0,0,0,0,0h0.9c0,0,0,0,0,0l0.1,1.4c0,0.1,0.1,0.3,0.2,0.3v0.8L22,4.2z"/>
		</g>
		<g>
			<path class="st0" d="M24.6,5.2l0-0.7c0.1,0,0.3-0.1,0.4-0.2L25,4c0,0,0,0,0.1,0h0.8c0,0,0,0,0,0c0,0-0.2,0.7-0.2,0.8
				c0,0,0,0.1-0.1,0.1c-0.1,0.2-0.3,0.3-0.5,0.3H24.6z M26.3,3.7h-1.6V0.1H27v3C27,3.5,26.8,3.7,26.3,3.7z M26.1,0.9h-0.5v0.7h0.5
				V0.9z M26.1,2.3h-0.5v0.6h0.5V2.3z M27.3,5.2h-0.5c0,0-0.1,0-0.1,0c-0.2-0.1-0.3-0.2-0.4-0.4c0,0,0-0.1,0-0.1
				c0-0.2-0.1-0.4-0.1-0.7c0,0,0-0.1,0-0.1h0.8c0,0,0.1,0,0.1,0c0,0.1,0,0.2,0.1,0.3c0,0.1,0.2,0.2,0.3,0.2V5.2z M29.2,2h-0.5l0-0.7
				c0.2,0,0.3,0,0.3-0.2V0.8l-0.2,0c0,0-0.1,0-0.1,0l-0.3,0.8C28.3,1.9,27.9,2,27.6,2h-0.5V1.3c0.2,0,0.3,0,0.4-0.2
				c0,0,0.1-0.3,0.1-0.3c0,0,0-0.1,0-0.1h-0.5V0.1h2.7v1.3C29.9,1.9,29.6,2,29.2,2z M27.2,3.7V2.2l2.6,0c0,0.3,0,0.7,0,1
				c0,0.4-0.3,0.5-0.7,0.5L27.2,3.7z M28.6,5.2h-0.4c-0.3,0-0.5-0.1-0.6-0.4c0-0.1-0.1-0.1-0.1-0.2c0-0.1-0.2-0.7-0.2-0.7
				c0,0,0,0,0,0h0.8c0,0,0.1,0,0.1,0c0.1,0.3,0.1,0.5,0.4,0.6V5.2z M29,2.8h-0.9v0.3H29V2.8z M29.9,5.2h-0.4c-0.3,0-0.5-0.1-0.6-0.3
				c0,0-0.1-0.1-0.1-0.1c0-0.1-0.2-0.7-0.2-0.8c0,0,0,0,0,0h0.8c0.2,0,0,0.5,0.4,0.6V5.2z"/>
		</g>
		<g>
			<path class="st0" d="M32.1,1.7v0.9h3.9v2.6h-1V3.6h-2.8v1.2c0,0.4-0.4,0.6-0.7,0.6h-0.6V4.5C31,4.4,31,4.3,31,4.1v-4h1v0.7h1.6V0
				h1v0.8H36v0.9H32.1z"/>
		</g>
	</g>
</g>
</svg>
