<?xml version="1.0" encoding="utf-8"?>
<!-- Generator: Adobe Illustrator 27.8.1, SVG Export Plug-In . SVG Version: 6.00 Build 0)  -->
<svg version="1.1" id="Layer_1" xmlns="http://www.w3.org/2000/svg" xmlns:xlink="http://www.w3.org/1999/xlink" x="0px" y="0px"
	 viewBox="0 0 33.6 5.9" style="enable-background:new 0 0 33.6 5.9;" xml:space="preserve">
<style type="text/css">
	.st0{fill:#F0D283;}
</style>
<g>
	<g>
		<path class="st0" d="M1.8,0.4h0.7v0.7H0V0.4h0.6V0h1.2V0.4z M0,1.3h2.3V2H0V1.3z M0,2.3h2.4V3H0V2.3z M0.1,3.3h2.4v1.9
			c0,0.1-0.1,0.4-0.1,0.5C2.2,5.8,1.9,5.9,1.7,5.9H0.1V3.3z M1.5,5.1V4H1.1v1.1H1.5z M4.8,0.3h1v0.6h-1v0.2h0.9v0.5H4.8v0.2h1v0.6
			H2.7V1.9h1V1.6H2.7V1.1h0.9V0.9h-1V0.3h1V0h1.2V0.3z M4.4,5.3c0.3,0,0.4,0.1,0.4-0.3H3.7v0.8h-1V2.7h3.1v2.6
			c0,0.2-0.1,0.3-0.2,0.4C5.5,5.8,5.3,5.8,5.1,5.8H4.4V5.3z M4.8,3.6V3.4H3.8v0.2H4.8z M4.8,4.4V4.1H3.8v0.2H4.8z"/>
		<path class="st0" d="M8.8,5.8c-0.2,0-0.5-0.2-0.6-0.4C8,5.6,7.8,5.8,7.6,5.8H6.9l0-0.7c0,0,0,0,0,0C7.1,5,7.1,5,7.2,4.9V3.3H7V2.5
			h1.2v2.1c0,0,0,0.1,0,0.1C8.3,5,8.4,5.1,8.7,5.1h4.1v0.7L8.8,5.8z M7.1,1.1V0.1h1v0.9H7.1z M7.1,2.3v-1h1v1H7.1z M8.5,4.1V3.4h0.6
			V3.2H8.5V2.4H9V2.2l-0.3,0c-0.2,0-0.3-0.1-0.4-0.3c0,0,0-0.1,0-0.1V0.1h2v1c-0.1,0.1-0.2,0.2-0.4,0.3c0,0-0.1,0-0.1,0H9.2v0.2h1.2
			v0.6h-0.3v0.2h1.2V2.2h-0.3c-0.2,0-0.3-0.1-0.4-0.3c0,0,0-0.1,0-0.1V0.1h2V1c0,0,0,0.1,0,0.1c-0.1,0.2-0.2,0.3-0.4,0.3h-0.8v0.3
			h1.3v0.6h-0.4v0.2h0.4v0.7h-0.4v0.2h0.4v0.7H8.5z M9.9,4.7C9.8,4.9,9.6,5,9.4,5H8.5V4.5h0c0.3,0,0.5-0.1,0.6-0.3h1.1c0,0,0,0,0,0
			C10.2,4.4,10.1,4.5,9.9,4.7z M9.6,0.6H9.2v0.2h0.5V0.6z M11.4,3.2h-1.2v0.2h1.2V3.2z M11.8,5c-0.1,0-0.4-0.1-0.5-0.2l-0.3-0.5
			c0,0,0,0,0,0l1.1,0c0.1,0.2,0.4,0.3,0.6,0.3c0,0.1,0,0.4,0,0.5H11.8z M12,0.6h-0.5v0.2H12V0.6z"/>
		<path class="st0" d="M14.1,5c0.2-0.1,0.3-0.2,0.3-0.3V4h-0.5l0-0.8c0.2-0.2,0.3-0.5,0.4-0.8c0,0,0-0.2,0-0.2V1.5h-0.4V0.6h0.5V0h1
			v0.6h0.4v0.9h-0.4V2h0.3v0.8h-0.3v2.6c0,0,0,0.1,0,0.1c-0.1,0.2-0.2,0.3-0.4,0.3c0,0-0.1,0-0.1,0h-0.8V5z M19.5,1.5
			c-0.1,0.2-0.3,0.3-0.5,0.3c-0.2,0-0.4,0-0.6,0V2h1.2v0.7h-1.1v0.2h1.2l0,0.7c0,0-0.3,0-0.3,0c0,0-0.1,0.2-0.1,0.2c0,0,0,0,0,0h0.3
			v0.7h-1.2v0.2h1.3v0.7h-1.3v0.4h-1.1V5.4h-1.4V4.7h1.4V4.6H16V3.8h0.5c0,0,0,0,0,0c0,0-0.1-0.2-0.1-0.3c0,0,0,0-0.1,0h-0.4V2.9
			h1.3V2.7H16V2h1.2V1.8H16V0.1h3.6L19.5,1.5C19.6,1.4,19.5,1.5,19.5,1.5z M17,0.9h-0.3v0.3H17V0.9z M18.1,3.8l0.1-0.2c0,0,0,0,0,0
			c0,0,0,0,0,0h-0.7c0,0,0,0,0,0c0,0,0.1,0.2,0.1,0.2c0,0,0,0,0.1,0L18.1,3.8C18,3.8,18.1,3.8,18.1,3.8z M18,0.9h-0.3v0.3H18V0.9z
			 M18.8,0.9h-0.2v0.3h0.2V0.9z"/>
		<path class="st0" d="M22.7,0.2C22.7,0.3,22.7,0.3,22.7,0.2l3.9,0v0.7c0,0.1-0.2,0.3-0.2,0.4c0,0,0.2,0,0.2,0l0,3.8
			c0,0.1,0,0.4-0.1,0.5c-0.2,0.1-0.4,0.2-0.6,0.2h-0.9V5.1h0.6V4.9l-3.3,0c0,0.1,0,0.2,0,0.3c0,0.1-0.1,0.4-0.2,0.5
			c-0.1,0-0.4,0.2-0.4,0.2h-0.8V5h0.1C21,4.9,21,4.8,21,4.7v-3h-0.2l0-0.9c0,0,0.1,0,0.1,0c0.1,0,0.2-0.2,0.3-0.2l0.3-0.6
			c0,0,0,0,0.1,0h1.2C22.8,0.1,22.7,0.2,22.7,0.2z M23.2,2.2h-1v0.5h1V2.2z M23.2,3.6h-1v0.5h1V3.6z M24.9,1.3c0,0,0.2-0.2,0.2-0.2
			c0,0,0,0,0,0h-2.7c0,0-0.1,0-0.1,0.1c0,0-0.1,0.2-0.1,0.2L24.9,1.3C24.9,1.3,24.9,1.3,24.9,1.3z M25.5,2.2h-1.1v0.5h1.1V2.2z
			 M25.5,3.6h-1.1v0.5h1.1V3.6z"/>
		<path class="st0" d="M29.6,0.1c0,0-0.1,0.2-0.1,0.3c0,0,0,0,0,0h3.8l0,0.6c0,0,0,0.1,0,0.1c0,0-0.3,0.6-0.3,0.6c0,0,0,0,0,0h0.5
			l0,2c0,0,0,0.1,0,0.1c0,0.2-0.1,0.3-0.3,0.4c0,0-0.1,0-0.1,0h-4V5h4.5v0.8h-4.8c-0.3,0-0.6,0-0.8-0.3c0,0-0.1-0.1-0.1-0.1V2h-0.3
			V1.2c0.1,0,0.3,0,0.3,0l0.5-1c0,0,0-0.1,0.1-0.1L29.6,0.1C29.5,0.1,29.6,0.1,29.6,0.1z M32,1.1h-2.9c0,0-0.1,0-0.1,0
			c0,0-0.2,0.5-0.2,0.5c0,0,0,0,0,0h2.8c0,0,0.1,0,0.1,0L32,1.1C32,1.1,32,1.1,32,1.1z M30.1,2.5H29v0.8h1.1V2.5z M32.4,2.5h-1.1
			v0.9h1.1V2.5z"/>
	</g>
</g>
</svg>
