<?xml version="1.0" encoding="utf-8"?>
<!-- Generator: Adobe Illustrator 27.8.1, SVG Export Plug-In . SVG Version: 6.00 Build 0)  -->
<svg version="1.1" id="Layer_1" xmlns="http://www.w3.org/2000/svg" xmlns:xlink="http://www.w3.org/1999/xlink" x="0px" y="0px"
	 viewBox="0 0 120.2 26" style="enable-background:new 0 0 120.2 26;" xml:space="preserve">
<style type="text/css">
	.st0{fill:#F0D283;}
</style>
<path class="st0" d="M12,23.3c4.5,0,8.4,0.9,10.5,2.2c1,0.6,2.1,0.6,3.1,0c2.1-1.3,6-2.2,10.5-2.2c4.5,0,8.4,0.9,10.5,2.2
	c1,0.6,2.1,0.6,3.1,0c2.1-1.3,6-2.2,10.5-2.2s8.4,0.9,10.5,2.2c1,0.6,2.1,0.6,3.1,0c2.1-1.3,6-2.2,10.5-2.2c4.5,0,8.4,0.9,10.5,2.2
	c1,0.6,2.1,0.6,3.1,0c2.1-1.3,6-2.2,10.5-2.2c3.2,0,6.1,0.4,8.3,1.2c1.8,0.6,3.7-0.7,3.7-2.6l0-6c0-4.3-3.5-7.7-7.7-7.7L76.6,8
	l0-5.5C76.6,1.2,75.4,0,74,0L46.1,0c-1.4,0-2.6,1.2-2.6,2.6l0,5.5l-35.8,0C3.5,8.1,0,11.5,0,15.8l0,6.1c0,1.9,1.9,3.3,3.7,2.6
	C5.9,23.8,8.8,23.3,12,23.3z"/>
</svg>
