<?xml version="1.0" encoding="utf-8"?>
<!-- Generator: Adobe Illustrator 27.8.1, SVG Export Plug-In . SVG Version: 6.00 Build 0)  -->
<svg version="1.1" id="Layer_1" xmlns="http://www.w3.org/2000/svg" xmlns:xlink="http://www.w3.org/1999/xlink" x="0px" y="0px"
	 viewBox="0 0 39.3 39.4" style="enable-background:new 0 0 39.3 39.4;" xml:space="preserve">
<style type="text/css">
	.st0{fill:#FFFFFF;stroke:#F0D283;stroke-width:0.7497;stroke-miterlimit:10;}
	.st1{fill:#E41E2B;stroke:#F0D283;stroke-width:0.7497;stroke-miterlimit:10;}
	.st2{fill:#E41E2B;}
	.st3{fill-rule:evenodd;clip-rule:evenodd;fill:#E41E2B;}
	.st4{fill:#FFFFFF;}
	.st5{opacity:0.1;}
	.st6{fill:#231F20;}
</style>
<g>
	<g>
		<g>
			<g>
				<path class="st0" d="M8.2,35.9c1,2.6,4.1,3.8,7,2.8l19.9-7.4c2.9-1.1,4.5-4,3.5-6.6l-6-16.1L2.3,19.7L8.2,35.9z"/>
				<path class="st1" d="M24.1,1.4L4.2,8.8c-2.9,1.1-4.5,4-3.5,6.6l1.6,4.3L32.7,8.5l-1.6-4.3C30.1,1.5,27,0.3,24.1,1.4z"/>
			</g>
			<g>
				<path class="st1" d="M10,10.7l-0.1,0.1C9.1,11,8.3,10.6,8.1,9.9L6.8,6.4C6.5,5.7,6.9,4.9,7.6,4.6l0.1-0.1
					c0.7-0.3,1.5,0.1,1.7,0.8l1.3,3.5C11,9.6,10.7,10.4,10,10.7z"/>
				<path class="st1" d="M21.1,6.6l-0.1,0.1c-0.7,0.3-1.5-0.1-1.7-0.8l-1.3-3.5c-0.3-0.7,0.1-1.5,0.8-1.7l0.1-0.1
					c0.7-0.3,1.5,0.1,1.7,0.8l1.3,3.5C22.1,5.5,21.8,6.3,21.1,6.6z"/>
			</g>
		</g>
		<g>
			<path class="st2" d="M14.9,17.6L14.9,17.6c-0.1-0.1-0.2-0.1-0.3-0.1c-0.1,0-0.2,0.2-0.1,0.3l0,0.1l0,0l0.9,2.4
				c0,0.1,0,0.2-0.1,0.2c-0.1,0-0.2,0-0.2-0.1l-0.9-2.6c0-0.1-0.2-0.2-0.3-0.2c-0.1,0-0.2,0.2-0.1,0.3l0,0.1l0,0l0.9,2.4
				c0,0.1,0,0.2-0.1,0.2c-0.1,0-0.2,0-0.2-0.1l-0.9-2.6c0-0.1-0.2-0.2-0.3-0.2c-0.1,0-0.2,0.2-0.1,0.3l0,0.1l0,0l0.9,2.4
				c0,0.1,0,0.2-0.1,0.2c-0.1,0-0.2,0-0.2-0.1l-0.9-2.4l0,0l0-0.1c0-0.1-0.2-0.2-0.3-0.2c-0.1,0-0.2,0.1-0.1,0.3l0,0
				c0.1,0.9,0.2,1.9,1.3,3.3c1.4,1.8,2.7,3.4,3.2,5.8c0.3,1.6,0.7,3,1.2,4.3c0.4,1.2,1.2,2.5,1.7,2.3c0.5-0.2,0.2-1.7-0.2-2.9
				c-0.5-1.3-1.1-2.6-1.9-4c-1.2-2.1-1.2-4.2-1.3-6.5C16,19.2,15.5,18.4,14.9,17.6z"/>
			<path class="st2" d="M27.1,23.9c0.3,1.6,0.7,3,1.2,4.3c0.4,1.2,1.2,2.5,1.7,2.3l0,0c0.5-0.2,0.2-1.7-0.2-2.9
				c-0.6-1.6-1.7-3.4-2.4-5.1C25.4,18,24,13.4,24,13.4c-1.5,1.5-0.7,3.4-0.6,3.4C24.2,19,26.3,19.6,27.1,23.9z"/>
			<path class="st3" d="M24.9,32.4c0.8-0.3,1.6-0.7,1.8-1c0.3-0.4-0.1-1.3-0.4-1.7c-0.2-0.2-0.5-0.6-0.9-1.6c-0.4-1-0.8-3.1-0.8-3.3
				c-0.1-0.2-0.1-0.4-0.2-0.4c0.1-0.2-0.9-2.6-1.2-2.7c0.1,0,0-0.3-0.1-0.5c-0.2-0.3-0.8-1.1-1.4-1.9C21.4,19,21,18.5,20.7,18
				c-0.2-0.4-0.4-1-0.5-1.2c0.1-0.1,0.1-0.2,0-0.3c-0.1-0.1-0.3-0.4-0.4-0.4c0,0,0-0.1,0-0.2c0-0.1,0-0.2-0.1-0.3
				c-0.1-0.1-0.2-0.1-0.3-0.1c-0.1,0-0.4,0.1-0.8,0.2c-0.4,0.1-0.7,0.3-0.7,0.3c-0.1,0-0.2,0.1-0.2,0.2c0,0.1,0,0.2,0.1,0.2
				c0.1,0,0.1,0.1,0.1,0.1c0,0,0,0.4,0,0.6c0,0.1,0.1,0.2,0.2,0.2c0.1,0.2,0.3,0.8,0.4,1.2c0.1,0.5,0.1,1.2,0.2,1.6
				c0.1,1,0.1,2,0.1,2.4c0,0.2,0.1,0.5,0.2,0.5c-0.2,0.2,0.6,2.8,0.8,2.8c-0.1,0.1,0,0.3,0.1,0.5c0.1,0.1,1.1,2,1.5,3
				c0.4,1,0.3,1.5,0.3,1.8c0,0.4,0.2,1.5,0.8,1.5C23.1,32.9,24.1,32.7,24.9,32.4z"/>
			<g>
				<g>
					<g>
						<polygon class="st4" points="21.7,23.1 21.5,23.2 21.5,23.4 21.7,23.4 						"/>
						<path class="st4" d="M21.3,23.3l-0.2,0.1c0,0,0,0,0,0.1c-0.3-0.2-0.4,0.5-0.4,0.7c0,0.2-0.1,0.7-0.2,0.6
							c-0.1,0-0.1-0.4-0.1-0.6c0-0.2,0.1-0.5,0.2-0.4c0,0,0,0.1,0,0.1c-0.1,0-0.1,0.2,0,0.3c0.1,0,0.1-0.1,0.1-0.3
							c0-0.1-0.1-0.2-0.1-0.2c-0.2,0-0.3,0.3-0.3,0.4c0,0.1,0,0.2-0.1,0.3c0-0.2-0.1-0.4-0.2-0.4c-0.1,0-0.1,0.4-0.1,0.5
							c0,0.4,0.2,0.6,0.2,0.6c0.1,0,0.1-0.4,0.1-0.6c0,0,0,0,0.1-0.1c0,0.2,0,0.3,0.1,0.4c0,0.1,0.1,0.2,0.2,0.2
							c0.2,0,0.2-0.3,0.3-0.4c0,0.2,0.1,0.3,0.2,0.3c0.1,0,0.2-0.2,0.2-0.3c0,0.1,0.1,0.1,0.1,0.2c0.1,0,0.1-0.1,0.2-0.1
							c0.1-0.1,0.2-0.4,0.2-0.7l-0.1,0c-0.1,0.3-0.2,0.5-0.2,0.5c0,0,0,0,0-0.1C21.2,24.3,21.3,23.3,21.3,23.3z M20,24.8
							c0,0-0.1-0.1-0.1-0.5c0,0,0.1,0.1,0.1,0.1C20,24.6,20,24.8,20,24.8z M20,24.3c0,0-0.1,0-0.1,0c-0.1-0.1,0-0.3,0-0.3
							C20,24,20,24.2,20,24.3z M21,24.2c0,0.1,0,0.2-0.1,0.3c-0.1,0-0.1-0.1-0.1-0.3c0-0.1,0-0.4,0.1-0.6c0-0.2,0.1-0.2,0.2-0.2
							C21.1,23.5,21,24.1,21,24.2z"/>
						<path class="st4" d="M21,25c-0.5,0.1-0.7,0.4-0.9,0.4c-0.2,0-0.3-0.3-0.4-0.8c-0.1-0.3-0.1-0.6-0.1-0.8c0-0.1,0-0.2,0.1-0.3
							c0,0,0,0,0,0.1c-0.1,0.1,0,0.3,0,0.2c0,0,0.1-0.1,0-0.3c0-0.1-0.1-0.2-0.1-0.2c-0.1,0-0.1,0.1-0.2,0.3c0,0.3,0,0.6,0.1,0.8
							c0.1,0.4,0.3,0.8,0.5,0.8c0.1,0,0.5-0.5,1-0.1c0-0.3,0.6-0.3,0.8-0.2C21.8,25.1,21.4,24.9,21,25z"/>
						<path class="st4" d="M24,23.5c0,0.2,0,0.3,0,0.3c0,0,0,0,0-0.1c0-0.2-0.1-0.6-0.1-0.8l-0.1,0c0,0,0,0,0,0.1
							c-0.2-0.2-0.2,0.3-0.2,0.5c0,0.2,0,0.5,0,0.5c0,0-0.1-0.2-0.1-0.5c0.1-0.2,0.1-0.6,0.1-0.8c0-0.1,0-0.1,0-0.2c0,0,0,0,0,0
							c0,0,0,0.1,0,0.1c0,0.1,0,0.4-0.1,0.6c-0.1-0.5-0.2-1.3-0.1-1.3c0,0,0.1,0.1,0.1,0.2c0,0,0,0,0,0c0-0.1-0.1-0.2-0.1-0.2
							c-0.1,0-0.1,0.6,0,1.2c0,0.1,0,0.2,0.1,0.4c0,0,0,0-0.1,0.1c0-0.2-0.1-0.4-0.2-0.4c-0.2,0-0.2,0.4-0.2,0.5
							c0,0.5,0.1,0.8,0.2,0.7c0.2,0,0.2-0.6,0.2-0.8c0,0,0,0,0.1,0c0.1,0.3,0.1,0.5,0.2,0.5c0.1,0,0.1-0.2,0.1-0.3
							c0,0.1,0.1,0.2,0.1,0.2c0.1,0,0.1-0.2,0.1-0.2c0,0.1,0.1,0.1,0.1,0.1C24,24.1,24,23.7,24,23.5L24,23.5z M23.1,24.3
							c-0.1,0-0.2-0.2-0.1-0.6c0,0.1,0.1,0.1,0.2,0.1C23.2,24,23.2,24.3,23.1,24.3z M23.2,23.8c-0.1,0-0.2-0.1-0.2-0.1
							c-0.1-0.1,0-0.2,0.1-0.2C23.1,23.4,23.2,23.6,23.2,23.8z M23.8,23.7c0,0.1,0,0.2,0,0.2c0,0,0-0.1-0.1-0.2c0-0.1,0-0.3,0-0.4
							c0-0.1,0-0.2,0.1-0.1C23.7,23.2,23.8,23.6,23.8,23.7z"/>
						<path class="st4" d="M22.4,23.5c-0.2,0.1-0.3,0.4-0.1,0.9c0-0.1,0.1-0.2,0.2-0.3c-0.1-0.1,0-0.5,0.1-0.5
							c0.1,0,0.1,0.3,0.1,0.6c0,0.2-0.1,0.5-0.3,0.5c-0.1,0-0.2-0.1-0.3-0.2c-0.2-0.5,0-1.2,0-1.5c0.1-0.2,0.2-0.4,0.3-0.5
							c0,0,0.1,0,0.1,0c-0.2,0.2-0.2,0.8,0,0.8c0.1,0,0.2-0.2,0.2-0.4c0-0.1,0-0.3-0.1-0.4c0,0,0,0,0,0c0.1,0,0.3,0.1,0.4,0.2
							c0-0.1,0-0.1,0-0.2c-0.1,0-0.3-0.1-0.5,0c0,0,0,0,0,0c-0.1-0.1-0.1-0.1-0.2,0c-0.1,0-0.3,0.2-0.4,0.4
							c-0.2,0.6-0.3,1.1-0.2,1.4c0,0.3,0.2,0.6,0.4,0.6c0.2,0,0.4-0.2,0.5-0.5c0-0.1,0-0.2,0-0.3c0-0.1,0-0.2,0-0.4
							C22.6,23.6,22.5,23.4,22.4,23.5z M22.6,22.6c0.1,0.1,0.1,0.2,0.1,0.3c0,0.1,0,0.3-0.1,0.3C22.4,23.2,22.4,22.7,22.6,22.6z"/>
						<path class="st4" d="M23.3,22.7c0.3-0.1,0.2-0.5,0.1-0.6c0,0.2,0,0.4-0.1,0.4C23.3,22.6,23.3,22.6,23.3,22.7z"/>
					</g>
				</g>
				<g>
					<g>
						<path class="st4" d="M24.2,23.9C24.1,23.9,24.1,23.9,24.2,23.9c-0.1-0.1-0.1-0.2-0.1-0.2c0,0,0.1,0,0.1,0.1
							C24.2,23.8,24.2,23.9,24.2,23.9z M24.1,23.7c0,0,0,0.1,0,0.1c0,0,0,0.1,0.1,0.1l0,0C24.2,23.9,24.2,23.8,24.1,23.7
							C24.1,23.7,24.1,23.7,24.1,23.7z M24.1,23.9L24.1,23.9l-0.1-0.1l0,0c0,0,0,0,0,0C24.2,23.8,24.1,23.8,24.1,23.9L24.1,23.9
							L24.1,23.9L24.1,23.9L24.1,23.9L24.1,23.9z M24.1,23.8C24.1,23.8,24.1,23.8,24.1,23.8C24.1,23.7,24.1,23.7,24.1,23.8
							L24.1,23.8L24.1,23.8L24.1,23.8z"/>
					</g>
				</g>
			</g>
		</g>
	</g>
	<g class="st5">
		<path class="st6" d="M22.6,28.8c-0.3-1.2-0.8-2.3-1.6-3.3C21.5,26.6,22.1,27.7,22.6,28.8z"/>
	</g>
</g>
</svg>
