<?xml version="1.0" encoding="utf-8"?>
<!-- Generator: Adobe Illustrator 27.8.1, SVG Export Plug-In . SVG Version: 6.00 Build 0)  -->
<svg version="1.1" id="Layer_1" xmlns="http://www.w3.org/2000/svg" xmlns:xlink="http://www.w3.org/1999/xlink" x="0px" y="0px"
	 viewBox="0 0 100 24" style="enable-background:new 0 0 100 24;" xml:space="preserve">
<style type="text/css">
	.st0{fill:#E41E2B;}
	.st1{fill:#F0D283;}
</style>
<g>
	<path class="st0" d="M88.2,0.8c-3,0-5.7,1.2-7.6,3.1c-2-1.9-4.7-3.1-7.6-3.1c-3,0-5.7,1.2-7.6,3.1c-2-1.9-4.7-3.1-7.6-3.1
		c-3,0-5.7,1.2-7.6,3.1c-2-1.9-4.7-3.1-7.6-3.1c-3,0-5.7,1.2-7.6,3.1c-2-1.9-4.7-3.1-7.6-3.1S21.4,2,19.4,3.9
		c-2-1.9-4.7-3.1-7.6-3.1c-6.1,0-11,5-11,11.2c0,6.2,4.9,11.2,11,11.2c3,0,5.7-1.2,7.6-3.1c2,1.9,4.7,3.1,7.6,3.1s5.7-1.2,7.6-3.1
		c2,1.9,4.7,3.1,7.6,3.1c3,0,5.7-1.2,7.6-3.1c2,1.9,4.7,3.1,7.6,3.1c3,0,5.7-1.2,7.6-3.1c2,1.9,4.7,3.1,7.6,3.1c3,0,5.7-1.2,7.6-3.1
		c2,1.9,4.7,3.1,7.6,3.1c6.1,0,11-5,11-11.2C99.2,5.8,94.3,0.8,88.2,0.8z"/>
	<path class="st1" d="M88.2,24c-2.8,0-5.5-1-7.6-2.9C78.4,23,75.7,24,72.9,24c-2.8,0-5.5-1-7.6-2.9C63.1,23,60.5,24,57.6,24
		s-5.5-1-7.6-2.9C47.9,23,45.2,24,42.4,24c-2.8,0-5.5-1-7.6-2.9C32.6,23,29.9,24,27.1,24s-5.5-1-7.6-2.9C17.3,23,14.6,24,11.8,24
		C5.3,24,0,18.6,0,12C0,5.4,5.3,0,11.8,0c2.8,0,5.5,1,7.6,2.9C21.6,1,24.3,0,27.1,0s5.5,1,7.6,2.9C36.9,1,39.5,0,42.4,0
		c2.8,0,5.5,1,7.6,2.9C52.1,1,54.8,0,57.6,0s5.5,1,7.6,2.9C67.4,1,70.1,0,72.9,0c2.8,0,5.5,1,7.6,2.9C82.7,1,85.4,0,88.2,0
		C94.7,0,100,5.4,100,12C100,18.6,94.7,24,88.2,24z M80.6,19l0.5,0.5c1.9,1.9,4.4,2.9,7.1,2.9c5.7,0,10.3-4.7,10.3-10.4
		S93.9,1.6,88.2,1.6c-2.7,0-5.2,1-7.1,2.9L80.6,5L80,4.5c-1.9-1.9-4.4-2.9-7.1-2.9c-2.7,0-5.2,1-7.1,2.9L65.3,5l-0.5-0.5
		c-1.9-1.9-4.4-2.9-7.1-2.9c-2.7,0-5.2,1-7.1,2.9L50,5l-0.5-0.5c-1.9-1.9-4.4-2.9-7.1-2.9c-2.7,0-5.2,1-7.1,2.9L34.7,5l-0.5-0.5
		c-1.9-1.9-4.4-2.9-7.1-2.9s-5.2,1-7.1,2.9L19.4,5l-0.5-0.5c-1.9-1.9-4.4-2.9-7.1-2.9C6.1,1.6,1.5,6.2,1.5,12s4.6,10.4,10.3,10.4
		c2.7,0,5.2-1,7.1-2.9l0.5-0.5l0.5,0.5c1.9,1.9,4.4,2.9,7.1,2.9s5.2-1,7.1-2.9l0.5-0.5l0.5,0.5c1.9,1.9,4.4,2.9,7.1,2.9
		c2.7,0,5.2-1,7.1-2.9L50,19l0.5,0.5c1.9,1.9,4.4,2.9,7.1,2.9c2.7,0,5.2-1,7.1-2.9l0.5-0.5l0.5,0.5c1.9,1.9,4.4,2.9,7.1,2.9
		c2.7,0,5.2-1,7.1-2.9L80.6,19z"/>
</g>
</svg>
